<mxfile host="app.diagrams.net" modified="2022-11-16T20:16:21.704Z" agent="5.0 (Windows NT 10.0; Win64; x64) AppleWebKit/537.36 (KHTML, like Gecko) Chrome/107.0.0.0 Safari/537.36" etag="sOkpsxSTy0SHe1_6qjNS" version="20.5.3" type="github" pages="2">
  <diagram id="5N432CefstWUIP9NLliG" name="Страница 1">
    <mxGraphModel dx="1753" dy="674" grid="1" gridSize="10" guides="1" tooltips="1" connect="1" arrows="1" fold="1" page="1" pageScale="1" pageWidth="827" pageHeight="1169" math="0" shadow="0">
      <root>
        <mxCell id="0" />
        <mxCell id="1" parent="0" />
        <mxCell id="ZWC13UbTc6IvKtvPfFhh-4" style="edgeStyle=orthogonalEdgeStyle;rounded=0;orthogonalLoop=1;jettySize=auto;html=1;" parent="1" source="ZWC13UbTc6IvKtvPfFhh-2" edge="1">
          <mxGeometry relative="1" as="geometry">
            <mxPoint x="410" y="85" as="targetPoint" />
          </mxGeometry>
        </mxCell>
        <mxCell id="ZWC13UbTc6IvKtvPfFhh-2" value="початок" style="rounded=1;whiteSpace=wrap;html=1;fillColor=#FFFFFF;" parent="1" vertex="1">
          <mxGeometry x="350" y="10" width="120" height="30" as="geometry" />
        </mxCell>
        <mxCell id="ZWC13UbTc6IvKtvPfFhh-7" style="edgeStyle=orthogonalEdgeStyle;rounded=0;orthogonalLoop=1;jettySize=auto;html=1;" parent="1" source="ZWC13UbTc6IvKtvPfFhh-5" edge="1">
          <mxGeometry relative="1" as="geometry">
            <mxPoint x="410.48571428571427" y="155" as="targetPoint" />
          </mxGeometry>
        </mxCell>
        <mxCell id="ZWC13UbTc6IvKtvPfFhh-5" value="R" style="shape=parallelogram;perimeter=parallelogramPerimeter;whiteSpace=wrap;html=1;fixedSize=1;fillColor=#FFFFFF;" parent="1" vertex="1">
          <mxGeometry x="357.5" y="90" width="105" height="30" as="geometry" />
        </mxCell>
        <mxCell id="ZWC13UbTc6IvKtvPfFhh-14" style="edgeStyle=orthogonalEdgeStyle;rounded=0;orthogonalLoop=1;jettySize=auto;html=1;" parent="1" source="ZWC13UbTc6IvKtvPfFhh-12" edge="1">
          <mxGeometry relative="1" as="geometry">
            <mxPoint x="410" y="220" as="targetPoint" />
          </mxGeometry>
        </mxCell>
        <mxCell id="ZWC13UbTc6IvKtvPfFhh-12" value="i = 0" style="rounded=0;whiteSpace=wrap;html=1;fillColor=#FFFFFF;" parent="1" vertex="1">
          <mxGeometry x="376" y="160" width="68" height="20" as="geometry" />
        </mxCell>
        <mxCell id="rJEAPIm3_EBUd__qqc6H-2" style="edgeStyle=orthogonalEdgeStyle;rounded=0;orthogonalLoop=1;jettySize=auto;html=1;" edge="1" parent="1" source="ZWC13UbTc6IvKtvPfFhh-15" target="rJEAPIm3_EBUd__qqc6H-4">
          <mxGeometry relative="1" as="geometry">
            <mxPoint x="540" y="270" as="targetPoint" />
          </mxGeometry>
        </mxCell>
        <mxCell id="rJEAPIm3_EBUd__qqc6H-21" style="edgeStyle=orthogonalEdgeStyle;rounded=0;orthogonalLoop=1;jettySize=auto;html=1;" edge="1" parent="1" source="ZWC13UbTc6IvKtvPfFhh-15" target="rJEAPIm3_EBUd__qqc6H-28">
          <mxGeometry relative="1" as="geometry">
            <mxPoint x="480" y="650" as="targetPoint" />
            <Array as="points">
              <mxPoint x="230" y="240" />
              <mxPoint x="230" y="590" />
            </Array>
          </mxGeometry>
        </mxCell>
        <mxCell id="ZWC13UbTc6IvKtvPfFhh-15" value="i &amp;lt; 10" style="rhombus;whiteSpace=wrap;html=1;fillColor=#FFFFFF;" parent="1" vertex="1">
          <mxGeometry x="365" y="220" width="95" height="40" as="geometry" />
        </mxCell>
        <mxCell id="rJEAPIm3_EBUd__qqc6H-6" style="edgeStyle=orthogonalEdgeStyle;rounded=0;orthogonalLoop=1;jettySize=auto;html=1;" edge="1" parent="1" source="rJEAPIm3_EBUd__qqc6H-4">
          <mxGeometry relative="1" as="geometry">
            <mxPoint x="535.0285714285715" y="345" as="targetPoint" />
          </mxGeometry>
        </mxCell>
        <mxCell id="rJEAPIm3_EBUd__qqc6H-4" value="&amp;nbsp;x , y" style="shape=parallelogram;perimeter=parallelogramPerimeter;whiteSpace=wrap;html=1;fixedSize=1;" vertex="1" parent="1">
          <mxGeometry x="490" y="290" width="90" height="30" as="geometry" />
        </mxCell>
        <mxCell id="rJEAPIm3_EBUd__qqc6H-11" style="edgeStyle=orthogonalEdgeStyle;rounded=0;orthogonalLoop=1;jettySize=auto;html=1;" edge="1" parent="1" source="rJEAPIm3_EBUd__qqc6H-7" target="rJEAPIm3_EBUd__qqc6H-12">
          <mxGeometry relative="1" as="geometry">
            <mxPoint x="730" y="430" as="targetPoint" />
            <Array as="points">
              <mxPoint x="730" y="395" />
              <mxPoint x="730" y="430" />
            </Array>
          </mxGeometry>
        </mxCell>
        <mxCell id="rJEAPIm3_EBUd__qqc6H-15" style="edgeStyle=orthogonalEdgeStyle;rounded=0;orthogonalLoop=1;jettySize=auto;html=1;" edge="1" parent="1" source="rJEAPIm3_EBUd__qqc6H-7">
          <mxGeometry relative="1" as="geometry">
            <mxPoint x="350" y="420" as="targetPoint" />
            <Array as="points">
              <mxPoint x="350" y="395" />
            </Array>
          </mxGeometry>
        </mxCell>
        <mxCell id="rJEAPIm3_EBUd__qqc6H-23" style="edgeStyle=orthogonalEdgeStyle;rounded=0;orthogonalLoop=1;jettySize=auto;html=1;" edge="1" parent="1" source="rJEAPIm3_EBUd__qqc6H-7">
          <mxGeometry relative="1" as="geometry">
            <mxPoint x="535.2571428571428" y="465.00265095729003" as="targetPoint" />
          </mxGeometry>
        </mxCell>
        <mxCell id="rJEAPIm3_EBUd__qqc6H-7" value="&lt;div&gt;(((y * y &amp;lt;= R * R - x * x &amp;amp;&amp;amp; y &amp;gt; 0) ||&lt;/div&gt;&lt;div&gt;&amp;nbsp; &amp;nbsp; &amp;nbsp; &amp;nbsp; &amp;nbsp; &amp;nbsp; (y &amp;lt;= x &amp;amp;&amp;amp; y &amp;gt;= -R &amp;amp;&amp;amp; x &amp;lt;= 0)))&lt;/div&gt;" style="rhombus;whiteSpace=wrap;html=1;" vertex="1" parent="1">
          <mxGeometry x="414" y="350" width="246" height="90" as="geometry" />
        </mxCell>
        <mxCell id="rJEAPIm3_EBUd__qqc6H-12" value="yes" style="shape=document;whiteSpace=wrap;html=1;boundedLbl=1;" vertex="1" parent="1">
          <mxGeometry x="705" y="420" width="50" height="40" as="geometry" />
        </mxCell>
        <mxCell id="rJEAPIm3_EBUd__qqc6H-13" value="+" style="text;html=1;resizable=0;autosize=1;align=center;verticalAlign=middle;points=[];fillColor=none;strokeColor=none;rounded=0;" vertex="1" parent="1">
          <mxGeometry x="675" y="370" width="30" height="30" as="geometry" />
        </mxCell>
        <mxCell id="rJEAPIm3_EBUd__qqc6H-17" value="-" style="text;html=1;strokeColor=none;fillColor=none;align=center;verticalAlign=middle;whiteSpace=wrap;rounded=0;" vertex="1" parent="1">
          <mxGeometry x="357.5" y="370" width="60" height="30" as="geometry" />
        </mxCell>
        <mxCell id="rJEAPIm3_EBUd__qqc6H-18" value="no" style="shape=document;whiteSpace=wrap;html=1;boundedLbl=1;" vertex="1" parent="1">
          <mxGeometry x="320" y="420" width="50" height="40" as="geometry" />
        </mxCell>
        <mxCell id="rJEAPIm3_EBUd__qqc6H-19" value="+" style="text;html=1;strokeColor=none;fillColor=none;align=center;verticalAlign=middle;whiteSpace=wrap;rounded=0;" vertex="1" parent="1">
          <mxGeometry x="460" y="210" width="60" height="30" as="geometry" />
        </mxCell>
        <mxCell id="rJEAPIm3_EBUd__qqc6H-26" style="edgeStyle=orthogonalEdgeStyle;rounded=0;orthogonalLoop=1;jettySize=auto;html=1;" edge="1" parent="1" source="rJEAPIm3_EBUd__qqc6H-24">
          <mxGeometry relative="1" as="geometry">
            <mxPoint x="410" y="200" as="targetPoint" />
            <Array as="points">
              <mxPoint x="535" y="600" />
              <mxPoint x="760" y="600" />
              <mxPoint x="760" y="200" />
              <mxPoint x="535" y="200" />
            </Array>
          </mxGeometry>
        </mxCell>
        <mxCell id="rJEAPIm3_EBUd__qqc6H-24" value="i++" style="rounded=1;whiteSpace=wrap;html=1;" vertex="1" parent="1">
          <mxGeometry x="497.63" y="470" width="74.75" height="30" as="geometry" />
        </mxCell>
        <mxCell id="rJEAPIm3_EBUd__qqc6H-27" value="-" style="text;html=1;strokeColor=none;fillColor=none;align=center;verticalAlign=middle;whiteSpace=wrap;rounded=0;" vertex="1" parent="1">
          <mxGeometry x="305" y="210" width="60" height="30" as="geometry" />
        </mxCell>
        <mxCell id="rJEAPIm3_EBUd__qqc6H-30" style="edgeStyle=orthogonalEdgeStyle;rounded=0;orthogonalLoop=1;jettySize=auto;html=1;" edge="1" parent="1" source="rJEAPIm3_EBUd__qqc6H-28">
          <mxGeometry relative="1" as="geometry">
            <mxPoint x="459.25714285714275" y="695" as="targetPoint" />
          </mxGeometry>
        </mxCell>
        <mxCell id="rJEAPIm3_EBUd__qqc6H-28" value="i=0" style="rounded=1;whiteSpace=wrap;html=1;" vertex="1" parent="1">
          <mxGeometry x="417.5" y="620" width="82.5" height="30" as="geometry" />
        </mxCell>
        <mxCell id="rJEAPIm3_EBUd__qqc6H-33" style="edgeStyle=orthogonalEdgeStyle;rounded=0;orthogonalLoop=1;jettySize=auto;html=1;" edge="1" parent="1" source="rJEAPIm3_EBUd__qqc6H-31">
          <mxGeometry relative="1" as="geometry">
            <mxPoint x="560" y="760" as="targetPoint" />
            <Array as="points">
              <mxPoint x="560" y="720" />
              <mxPoint x="560" y="760" />
            </Array>
          </mxGeometry>
        </mxCell>
        <mxCell id="rJEAPIm3_EBUd__qqc6H-35" style="edgeStyle=orthogonalEdgeStyle;rounded=0;orthogonalLoop=1;jettySize=auto;html=1;" edge="1" parent="1" source="rJEAPIm3_EBUd__qqc6H-31" target="rJEAPIm3_EBUd__qqc6H-66">
          <mxGeometry relative="1" as="geometry">
            <mxPoint x="530" y="1271.371372767857" as="targetPoint" />
            <Array as="points">
              <mxPoint x="300" y="720" />
              <mxPoint x="300" y="1230" />
            </Array>
          </mxGeometry>
        </mxCell>
        <mxCell id="rJEAPIm3_EBUd__qqc6H-31" value="i &amp;lt; 10" style="rhombus;whiteSpace=wrap;html=1;" vertex="1" parent="1">
          <mxGeometry x="423.75" y="700" width="70" height="40" as="geometry" />
        </mxCell>
        <mxCell id="rJEAPIm3_EBUd__qqc6H-37" value="+" style="text;html=1;strokeColor=none;fillColor=none;align=center;verticalAlign=middle;whiteSpace=wrap;rounded=0;" vertex="1" parent="1">
          <mxGeometry x="490" y="690" width="60" height="30" as="geometry" />
        </mxCell>
        <mxCell id="rJEAPIm3_EBUd__qqc6H-38" value="-" style="text;html=1;strokeColor=none;fillColor=none;align=center;verticalAlign=middle;whiteSpace=wrap;rounded=0;" vertex="1" parent="1">
          <mxGeometry x="370" y="690" width="60" height="30" as="geometry" />
        </mxCell>
        <mxCell id="rJEAPIm3_EBUd__qqc6H-41" style="edgeStyle=orthogonalEdgeStyle;rounded=0;orthogonalLoop=1;jettySize=auto;html=1;" edge="1" parent="1" source="rJEAPIm3_EBUd__qqc6H-39" target="rJEAPIm3_EBUd__qqc6H-40">
          <mxGeometry relative="1" as="geometry" />
        </mxCell>
        <mxCell id="rJEAPIm3_EBUd__qqc6H-39" value="R * 2. * rand() / RAND_MAX - R" style="rounded=1;whiteSpace=wrap;html=1;" vertex="1" parent="1">
          <mxGeometry x="470" y="760" width="180" height="20" as="geometry" />
        </mxCell>
        <mxCell id="rJEAPIm3_EBUd__qqc6H-43" style="edgeStyle=orthogonalEdgeStyle;rounded=0;orthogonalLoop=1;jettySize=auto;html=1;" edge="1" parent="1" source="rJEAPIm3_EBUd__qqc6H-40">
          <mxGeometry relative="1" as="geometry">
            <mxPoint x="560" y="910" as="targetPoint" />
          </mxGeometry>
        </mxCell>
        <mxCell id="rJEAPIm3_EBUd__qqc6H-40" value="R * 2. * rand() / RAND_MAX - R" style="rounded=1;whiteSpace=wrap;html=1;" vertex="1" parent="1">
          <mxGeometry x="470" y="830" width="180" height="20" as="geometry" />
        </mxCell>
        <mxCell id="rJEAPIm3_EBUd__qqc6H-50" style="edgeStyle=orthogonalEdgeStyle;rounded=0;orthogonalLoop=1;jettySize=auto;html=1;" edge="1" parent="1" source="rJEAPIm3_EBUd__qqc6H-44">
          <mxGeometry relative="1" as="geometry">
            <mxPoint x="380" y="990" as="targetPoint" />
            <Array as="points">
              <mxPoint x="380" y="950" />
            </Array>
          </mxGeometry>
        </mxCell>
        <mxCell id="rJEAPIm3_EBUd__qqc6H-52" style="edgeStyle=orthogonalEdgeStyle;rounded=0;orthogonalLoop=1;jettySize=auto;html=1;" edge="1" parent="1" source="rJEAPIm3_EBUd__qqc6H-44">
          <mxGeometry relative="1" as="geometry">
            <mxPoint x="740" y="990" as="targetPoint" />
            <Array as="points">
              <mxPoint x="740" y="950" />
            </Array>
          </mxGeometry>
        </mxCell>
        <mxCell id="rJEAPIm3_EBUd__qqc6H-44" value="&lt;div&gt;(((y * y &amp;lt;= R * R - x * x &amp;amp;&amp;amp; y &amp;gt; 0) ||&lt;/div&gt;&lt;div&gt;&amp;nbsp; &amp;nbsp; &amp;nbsp; &amp;nbsp; &amp;nbsp; &amp;nbsp; (y &amp;lt;= x &amp;amp;&amp;amp; y &amp;gt;= -R &amp;amp;&amp;amp; x &amp;lt;= 0)))&lt;/div&gt;" style="rhombus;whiteSpace=wrap;html=1;" vertex="1" parent="1">
          <mxGeometry x="430" y="910" width="260" height="80" as="geometry" />
        </mxCell>
        <mxCell id="rJEAPIm3_EBUd__qqc6H-53" value="+" style="text;html=1;strokeColor=none;fillColor=none;align=center;verticalAlign=middle;whiteSpace=wrap;rounded=0;" vertex="1" parent="1">
          <mxGeometry x="680" y="920" width="60" height="30" as="geometry" />
        </mxCell>
        <mxCell id="rJEAPIm3_EBUd__qqc6H-54" value="-" style="text;html=1;strokeColor=none;fillColor=none;align=center;verticalAlign=middle;whiteSpace=wrap;rounded=0;" vertex="1" parent="1">
          <mxGeometry x="382.5" y="920" width="60" height="30" as="geometry" />
        </mxCell>
        <mxCell id="rJEAPIm3_EBUd__qqc6H-55" value="x,y yes" style="shape=document;whiteSpace=wrap;html=1;boundedLbl=1;" vertex="1" parent="1">
          <mxGeometry x="705" y="990" width="70" height="40" as="geometry" />
        </mxCell>
        <mxCell id="rJEAPIm3_EBUd__qqc6H-56" value="x,y no" style="shape=document;whiteSpace=wrap;html=1;boundedLbl=1;" vertex="1" parent="1">
          <mxGeometry x="344" y="990" width="70" height="40" as="geometry" />
        </mxCell>
        <mxCell id="rJEAPIm3_EBUd__qqc6H-61" value="" style="endArrow=none;html=1;rounded=0;exitX=0.553;exitY=0.881;exitDx=0;exitDy=0;exitPerimeter=0;entryX=0.561;entryY=0.87;entryDx=0;entryDy=0;entryPerimeter=0;" edge="1" parent="1" source="rJEAPIm3_EBUd__qqc6H-56" target="rJEAPIm3_EBUd__qqc6H-55">
          <mxGeometry width="50" height="50" relative="1" as="geometry">
            <mxPoint x="590" y="1060" as="sourcePoint" />
            <mxPoint x="640" y="1010" as="targetPoint" />
            <Array as="points">
              <mxPoint x="383" y="1080" />
              <mxPoint x="744" y="1080" />
            </Array>
          </mxGeometry>
        </mxCell>
        <mxCell id="rJEAPIm3_EBUd__qqc6H-62" value="" style="endArrow=classic;html=1;rounded=0;" edge="1" parent="1">
          <mxGeometry width="50" height="50" relative="1" as="geometry">
            <mxPoint x="560" y="1080" as="sourcePoint" />
            <mxPoint x="560" y="1130" as="targetPoint" />
          </mxGeometry>
        </mxCell>
        <mxCell id="rJEAPIm3_EBUd__qqc6H-65" style="edgeStyle=orthogonalEdgeStyle;rounded=0;orthogonalLoop=1;jettySize=auto;html=1;" edge="1" parent="1" source="rJEAPIm3_EBUd__qqc6H-63">
          <mxGeometry relative="1" as="geometry">
            <mxPoint x="460" y="670" as="targetPoint" />
            <Array as="points">
              <mxPoint x="560" y="1240" />
              <mxPoint x="800" y="1240" />
              <mxPoint x="800" y="670" />
            </Array>
          </mxGeometry>
        </mxCell>
        <mxCell id="rJEAPIm3_EBUd__qqc6H-63" value="i++" style="rounded=1;whiteSpace=wrap;html=1;" vertex="1" parent="1">
          <mxGeometry x="515" y="1129" width="90" height="40" as="geometry" />
        </mxCell>
        <mxCell id="rJEAPIm3_EBUd__qqc6H-66" value="кінець" style="rounded=1;whiteSpace=wrap;html=1;" vertex="1" parent="1">
          <mxGeometry x="475" y="1270" width="85" height="20" as="geometry" />
        </mxCell>
      </root>
    </mxGraphModel>
  </diagram>
  <diagram id="iS8_19dRsRXzAq9ZctJX" name="Страница 2">
    <mxGraphModel dx="2129" dy="819" grid="1" gridSize="10" guides="1" tooltips="1" connect="1" arrows="1" fold="1" page="1" pageScale="1" pageWidth="827" pageHeight="1169" math="0" shadow="0">
      <root>
        <mxCell id="0" />
        <mxCell id="1" parent="0" />
        <mxCell id="iwmx_b_H9nalrv4io-dC-3" style="edgeStyle=orthogonalEdgeStyle;rounded=0;orthogonalLoop=1;jettySize=auto;html=1;" edge="1" parent="1" source="iwmx_b_H9nalrv4io-dC-1">
          <mxGeometry relative="1" as="geometry">
            <mxPoint x="395" y="105" as="targetPoint" />
          </mxGeometry>
        </mxCell>
        <mxCell id="iwmx_b_H9nalrv4io-dC-1" value="" style="ellipse;whiteSpace=wrap;html=1;aspect=fixed;fillColor=#000000;" vertex="1" parent="1">
          <mxGeometry x="370" y="20" width="50" height="50" as="geometry" />
        </mxCell>
        <mxCell id="iwmx_b_H9nalrv4io-dC-6" style="edgeStyle=orthogonalEdgeStyle;rounded=0;orthogonalLoop=1;jettySize=auto;html=1;" edge="1" parent="1" source="iwmx_b_H9nalrv4io-dC-4" target="iwmx_b_H9nalrv4io-dC-5">
          <mxGeometry relative="1" as="geometry" />
        </mxCell>
        <mxCell id="iwmx_b_H9nalrv4io-dC-4" value="ввід R" style="rounded=1;whiteSpace=wrap;html=1;fillColor=#FFFFFF;" vertex="1" parent="1">
          <mxGeometry x="347.5" y="110" width="95" height="30" as="geometry" />
        </mxCell>
        <mxCell id="iwmx_b_H9nalrv4io-dC-8" style="edgeStyle=orthogonalEdgeStyle;rounded=0;orthogonalLoop=1;jettySize=auto;html=1;" edge="1" parent="1" source="iwmx_b_H9nalrv4io-dC-5">
          <mxGeometry relative="1" as="geometry">
            <mxPoint x="395.5" y="275" as="targetPoint" />
          </mxGeometry>
        </mxCell>
        <mxCell id="iwmx_b_H9nalrv4io-dC-5" value="i=0" style="rounded=1;whiteSpace=wrap;html=1;fillColor=#FFFFFF;" vertex="1" parent="1">
          <mxGeometry x="348" y="195" width="95" height="30" as="geometry" />
        </mxCell>
        <mxCell id="iwmx_b_H9nalrv4io-dC-11" style="edgeStyle=orthogonalEdgeStyle;rounded=0;orthogonalLoop=1;jettySize=auto;html=1;" edge="1" parent="1" source="iwmx_b_H9nalrv4io-dC-9" target="iwmx_b_H9nalrv4io-dC-10">
          <mxGeometry relative="1" as="geometry" />
        </mxCell>
        <mxCell id="iwmx_b_H9nalrv4io-dC-9" value="" style="rhombus;whiteSpace=wrap;html=1;fillColor=#FFFFFF;" vertex="1" parent="1">
          <mxGeometry x="367.5" y="280" width="55" height="50" as="geometry" />
        </mxCell>
        <mxCell id="iwmx_b_H9nalrv4io-dC-13" style="edgeStyle=orthogonalEdgeStyle;rounded=0;orthogonalLoop=1;jettySize=auto;html=1;" edge="1" parent="1" source="iwmx_b_H9nalrv4io-dC-10" target="iwmx_b_H9nalrv4io-dC-14">
          <mxGeometry relative="1" as="geometry">
            <mxPoint x="833" y="750" as="targetPoint" />
            <Array as="points">
              <mxPoint x="833" y="795" />
            </Array>
          </mxGeometry>
        </mxCell>
        <mxCell id="iwmx_b_H9nalrv4io-dC-38" style="edgeStyle=orthogonalEdgeStyle;rounded=0;orthogonalLoop=1;jettySize=auto;html=1;" edge="1" parent="1" source="iwmx_b_H9nalrv4io-dC-10">
          <mxGeometry relative="1" as="geometry">
            <mxPoint x="395.51724137931046" y="855.0156739811912" as="targetPoint" />
          </mxGeometry>
        </mxCell>
        <mxCell id="iwmx_b_H9nalrv4io-dC-10" value="" style="rhombus;whiteSpace=wrap;html=1;fillColor=#FFFFFF;" vertex="1" parent="1">
          <mxGeometry x="368" y="770" width="55" height="50" as="geometry" />
        </mxCell>
        <mxCell id="iwmx_b_H9nalrv4io-dC-16" style="edgeStyle=orthogonalEdgeStyle;rounded=0;orthogonalLoop=1;jettySize=auto;html=1;" edge="1" parent="1" source="iwmx_b_H9nalrv4io-dC-14">
          <mxGeometry relative="1" as="geometry">
            <mxPoint x="838.5" y="700" as="targetPoint" />
          </mxGeometry>
        </mxCell>
        <mxCell id="iwmx_b_H9nalrv4io-dC-14" value="ввід х у" style="rounded=1;whiteSpace=wrap;html=1;fillColor=#FFFFFF;" vertex="1" parent="1">
          <mxGeometry x="790" y="750" width="97" height="20" as="geometry" />
        </mxCell>
        <mxCell id="iwmx_b_H9nalrv4io-dC-19" style="edgeStyle=orthogonalEdgeStyle;rounded=0;orthogonalLoop=1;jettySize=auto;html=1;" edge="1" parent="1" source="iwmx_b_H9nalrv4io-dC-17">
          <mxGeometry relative="1" as="geometry">
            <mxPoint x="839" y="590" as="targetPoint" />
          </mxGeometry>
        </mxCell>
        <mxCell id="iwmx_b_H9nalrv4io-dC-29" style="edgeStyle=orthogonalEdgeStyle;rounded=0;orthogonalLoop=1;jettySize=auto;html=1;" edge="1" parent="1" source="iwmx_b_H9nalrv4io-dC-17">
          <mxGeometry relative="1" as="geometry">
            <mxPoint x="540" y="680" as="targetPoint" />
          </mxGeometry>
        </mxCell>
        <mxCell id="iwmx_b_H9nalrv4io-dC-17" value="" style="rhombus;whiteSpace=wrap;html=1;fillColor=#FFFFFF;" vertex="1" parent="1">
          <mxGeometry x="813.5" y="660" width="50" height="40" as="geometry" />
        </mxCell>
        <mxCell id="iwmx_b_H9nalrv4io-dC-22" style="edgeStyle=orthogonalEdgeStyle;rounded=0;orthogonalLoop=1;jettySize=auto;html=1;" edge="1" parent="1" source="iwmx_b_H9nalrv4io-dC-20">
          <mxGeometry relative="1" as="geometry">
            <mxPoint x="839" y="490" as="targetPoint" />
          </mxGeometry>
        </mxCell>
        <mxCell id="iwmx_b_H9nalrv4io-dC-20" value="вивід no" style="rounded=1;whiteSpace=wrap;html=1;fillColor=#FFFFFF;" vertex="1" parent="1">
          <mxGeometry x="778.5" y="565" width="120" height="20" as="geometry" />
        </mxCell>
        <mxCell id="iwmx_b_H9nalrv4io-dC-25" style="edgeStyle=orthogonalEdgeStyle;rounded=0;orthogonalLoop=1;jettySize=auto;html=1;" edge="1" parent="1" source="iwmx_b_H9nalrv4io-dC-23" target="iwmx_b_H9nalrv4io-dC-26">
          <mxGeometry relative="1" as="geometry">
            <mxPoint x="840" y="320" as="targetPoint" />
          </mxGeometry>
        </mxCell>
        <mxCell id="iwmx_b_H9nalrv4io-dC-23" value="" style="rhombus;whiteSpace=wrap;html=1;fillColor=#FFFFFF;" vertex="1" parent="1">
          <mxGeometry x="813.5" y="440" width="50" height="50" as="geometry" />
        </mxCell>
        <mxCell id="iwmx_b_H9nalrv4io-dC-27" style="edgeStyle=orthogonalEdgeStyle;rounded=0;orthogonalLoop=1;jettySize=auto;html=1;entryX=1;entryY=0.5;entryDx=0;entryDy=0;" edge="1" parent="1" source="iwmx_b_H9nalrv4io-dC-26" target="iwmx_b_H9nalrv4io-dC-9">
          <mxGeometry relative="1" as="geometry" />
        </mxCell>
        <mxCell id="iwmx_b_H9nalrv4io-dC-26" value="i++" style="rounded=1;whiteSpace=wrap;html=1;fillColor=#FFFFFF;" vertex="1" parent="1">
          <mxGeometry x="787.75" y="290" width="101.5" height="30" as="geometry" />
        </mxCell>
        <mxCell id="iwmx_b_H9nalrv4io-dC-32" style="edgeStyle=orthogonalEdgeStyle;rounded=0;orthogonalLoop=1;jettySize=auto;html=1;" edge="1" parent="1" source="iwmx_b_H9nalrv4io-dC-30">
          <mxGeometry relative="1" as="geometry">
            <mxPoint x="810" y="470" as="targetPoint" />
            <Array as="points">
              <mxPoint x="494" y="563" />
              <mxPoint x="494" y="460" />
            </Array>
          </mxGeometry>
        </mxCell>
        <mxCell id="iwmx_b_H9nalrv4io-dC-30" value="вивід yes" style="rounded=1;whiteSpace=wrap;html=1;fillColor=#FFFFFF;" vertex="1" parent="1">
          <mxGeometry x="450" y="665" width="87" height="30" as="geometry" />
        </mxCell>
        <mxCell id="iwmx_b_H9nalrv4io-dC-35" value="[&lt;span style=&quot;background-color: initial;&quot;&gt;(((y * y &amp;lt;= R * R - x * x &amp;amp;&amp;amp; y &amp;gt; 0) ||&lt;/span&gt;&lt;div&gt;&amp;nbsp; &amp;nbsp; &amp;nbsp; &amp;nbsp; &amp;nbsp; &amp;nbsp; (y &amp;lt;= x &amp;amp;&amp;amp; y &amp;gt;= -R &amp;amp;&amp;amp; x &amp;lt;= 0)))]&lt;/div&gt;" style="text;html=1;strokeColor=none;fillColor=none;align=center;verticalAlign=middle;whiteSpace=wrap;rounded=0;" vertex="1" parent="1">
          <mxGeometry x="507" y="650" width="320" height="30" as="geometry" />
        </mxCell>
        <mxCell id="iwmx_b_H9nalrv4io-dC-41" style="edgeStyle=orthogonalEdgeStyle;rounded=0;orthogonalLoop=1;jettySize=auto;html=1;" edge="1" parent="1" source="iwmx_b_H9nalrv4io-dC-39">
          <mxGeometry relative="1" as="geometry">
            <mxPoint x="395.2413793103449" y="955" as="targetPoint" />
          </mxGeometry>
        </mxCell>
        <mxCell id="iwmx_b_H9nalrv4io-dC-39" value="i=0" style="rounded=1;whiteSpace=wrap;html=1;fillColor=#FFFFFF;" vertex="1" parent="1">
          <mxGeometry x="352.75" y="860" width="84.5" height="30" as="geometry" />
        </mxCell>
        <mxCell id="iwmx_b_H9nalrv4io-dC-44" style="edgeStyle=orthogonalEdgeStyle;rounded=0;orthogonalLoop=1;jettySize=auto;html=1;" edge="1" parent="1" source="iwmx_b_H9nalrv4io-dC-42" target="iwmx_b_H9nalrv4io-dC-43">
          <mxGeometry relative="1" as="geometry" />
        </mxCell>
        <mxCell id="iwmx_b_H9nalrv4io-dC-42" value="" style="rhombus;whiteSpace=wrap;html=1;fillColor=#FFFFFF;" vertex="1" parent="1">
          <mxGeometry x="367.5" y="960" width="55" height="50" as="geometry" />
        </mxCell>
        <mxCell id="iwmx_b_H9nalrv4io-dC-47" style="edgeStyle=orthogonalEdgeStyle;rounded=0;orthogonalLoop=1;jettySize=auto;html=1;" edge="1" parent="1" source="iwmx_b_H9nalrv4io-dC-43" target="iwmx_b_H9nalrv4io-dC-48">
          <mxGeometry relative="1" as="geometry">
            <mxPoint x="873" y="1365" as="targetPoint" />
            <Array as="points">
              <mxPoint x="873" y="1365" />
            </Array>
          </mxGeometry>
        </mxCell>
        <mxCell id="iwmx_b_H9nalrv4io-dC-72" style="edgeStyle=orthogonalEdgeStyle;rounded=0;orthogonalLoop=1;jettySize=auto;html=1;" edge="1" parent="1" source="iwmx_b_H9nalrv4io-dC-43">
          <mxGeometry relative="1" as="geometry">
            <mxPoint x="395.51724137931046" y="1425.0156739811914" as="targetPoint" />
          </mxGeometry>
        </mxCell>
        <mxCell id="iwmx_b_H9nalrv4io-dC-43" value="" style="rhombus;whiteSpace=wrap;html=1;fillColor=#FFFFFF;" vertex="1" parent="1">
          <mxGeometry x="368" y="1340" width="55" height="50" as="geometry" />
        </mxCell>
        <mxCell id="iwmx_b_H9nalrv4io-dC-45" value="[i&amp;lt;10]" style="text;html=1;strokeColor=none;fillColor=none;align=center;verticalAlign=middle;whiteSpace=wrap;rounded=0;" vertex="1" parent="1">
          <mxGeometry x="477" y="770" width="60" height="30" as="geometry" />
        </mxCell>
        <mxCell id="iwmx_b_H9nalrv4io-dC-50" style="edgeStyle=orthogonalEdgeStyle;rounded=0;orthogonalLoop=1;jettySize=auto;html=1;" edge="1" parent="1" source="iwmx_b_H9nalrv4io-dC-48" target="iwmx_b_H9nalrv4io-dC-49">
          <mxGeometry relative="1" as="geometry" />
        </mxCell>
        <mxCell id="iwmx_b_H9nalrv4io-dC-48" value="R * 2. * rand() / RAND_MAX - R" style="rounded=1;whiteSpace=wrap;html=1;fillColor=#FFFFFF;" vertex="1" parent="1">
          <mxGeometry x="813" y="1352.5" width="167" height="25" as="geometry" />
        </mxCell>
        <mxCell id="iwmx_b_H9nalrv4io-dC-52" style="edgeStyle=orthogonalEdgeStyle;rounded=0;orthogonalLoop=1;jettySize=auto;html=1;" edge="1" parent="1" source="iwmx_b_H9nalrv4io-dC-49">
          <mxGeometry relative="1" as="geometry">
            <mxPoint x="896.4827586206895" y="1253" as="targetPoint" />
          </mxGeometry>
        </mxCell>
        <mxCell id="iwmx_b_H9nalrv4io-dC-49" value="R * 2. * rand() / RAND_MAX - R" style="rounded=1;whiteSpace=wrap;html=1;fillColor=#FFFFFF;" vertex="1" parent="1">
          <mxGeometry x="813" y="1288" width="167" height="25" as="geometry" />
        </mxCell>
        <mxCell id="iwmx_b_H9nalrv4io-dC-55" style="edgeStyle=orthogonalEdgeStyle;rounded=0;orthogonalLoop=1;jettySize=auto;html=1;" edge="1" parent="1" source="iwmx_b_H9nalrv4io-dC-53">
          <mxGeometry relative="1" as="geometry">
            <mxPoint x="570" y="1230" as="targetPoint" />
          </mxGeometry>
        </mxCell>
        <mxCell id="iwmx_b_H9nalrv4io-dC-62" style="edgeStyle=orthogonalEdgeStyle;rounded=0;orthogonalLoop=1;jettySize=auto;html=1;" edge="1" parent="1" source="iwmx_b_H9nalrv4io-dC-53">
          <mxGeometry relative="1" as="geometry">
            <mxPoint x="897.0344827586207" y="1159.9655172413793" as="targetPoint" />
          </mxGeometry>
        </mxCell>
        <mxCell id="iwmx_b_H9nalrv4io-dC-53" value="" style="rhombus;whiteSpace=wrap;html=1;fillColor=#FFFFFF;" vertex="1" parent="1">
          <mxGeometry x="876.5" y="1210" width="40" height="40" as="geometry" />
        </mxCell>
        <mxCell id="iwmx_b_H9nalrv4io-dC-58" style="edgeStyle=orthogonalEdgeStyle;rounded=0;orthogonalLoop=1;jettySize=auto;html=1;entryX=0;entryY=0.5;entryDx=0;entryDy=0;" edge="1" parent="1" source="iwmx_b_H9nalrv4io-dC-56" target="iwmx_b_H9nalrv4io-dC-66">
          <mxGeometry relative="1" as="geometry">
            <mxPoint x="870" y="1040" as="targetPoint" />
            <Array as="points">
              <mxPoint x="535" y="1050" />
            </Array>
          </mxGeometry>
        </mxCell>
        <mxCell id="iwmx_b_H9nalrv4io-dC-56" value="вивід yes" style="rounded=1;whiteSpace=wrap;html=1;fillColor=#FFFFFF;" vertex="1" parent="1">
          <mxGeometry x="500" y="1210" width="70" height="40" as="geometry" />
        </mxCell>
        <mxCell id="iwmx_b_H9nalrv4io-dC-59" value="[&lt;span style=&quot;background-color: initial;&quot;&gt;(((y * y &amp;lt;= R * R - x * x &amp;amp;&amp;amp; y &amp;gt; 0) ||&lt;/span&gt;&lt;div&gt;&amp;nbsp; &amp;nbsp; &amp;nbsp; &amp;nbsp; &amp;nbsp; &amp;nbsp; (y &amp;lt;= x &amp;amp;&amp;amp; y &amp;gt;= -R &amp;amp;&amp;amp; x &amp;lt;= 0)))]&lt;/div&gt;" style="text;html=1;strokeColor=none;fillColor=none;align=center;verticalAlign=middle;whiteSpace=wrap;rounded=0;" vertex="1" parent="1">
          <mxGeometry x="593.5" y="1200" width="220" height="30" as="geometry" />
        </mxCell>
        <mxCell id="iwmx_b_H9nalrv4io-dC-60" value="[i&amp;lt;10]" style="text;html=1;strokeColor=none;fillColor=none;align=center;verticalAlign=middle;whiteSpace=wrap;rounded=0;" vertex="1" parent="1">
          <mxGeometry x="533.5" y="1330" width="60" height="40" as="geometry" />
        </mxCell>
        <mxCell id="iwmx_b_H9nalrv4io-dC-65" style="edgeStyle=orthogonalEdgeStyle;rounded=0;orthogonalLoop=1;jettySize=auto;html=1;" edge="1" parent="1" source="iwmx_b_H9nalrv4io-dC-63">
          <mxGeometry relative="1" as="geometry">
            <mxPoint x="897.0344827586207" y="1075" as="targetPoint" />
          </mxGeometry>
        </mxCell>
        <mxCell id="iwmx_b_H9nalrv4io-dC-63" value="вивід no" style="rounded=1;whiteSpace=wrap;html=1;fillColor=#FFFFFF;" vertex="1" parent="1">
          <mxGeometry x="836.5" y="1130" width="120" height="30" as="geometry" />
        </mxCell>
        <mxCell id="iwmx_b_H9nalrv4io-dC-68" style="edgeStyle=orthogonalEdgeStyle;rounded=0;orthogonalLoop=1;jettySize=auto;html=1;" edge="1" parent="1" source="iwmx_b_H9nalrv4io-dC-66">
          <mxGeometry relative="1" as="geometry">
            <mxPoint x="898.2758620689654" y="1004.9762187871581" as="targetPoint" />
          </mxGeometry>
        </mxCell>
        <mxCell id="iwmx_b_H9nalrv4io-dC-66" value="" style="rhombus;whiteSpace=wrap;html=1;fillColor=#FFFFFF;" vertex="1" parent="1">
          <mxGeometry x="876.5" y="1030" width="40" height="40" as="geometry" />
        </mxCell>
        <mxCell id="iwmx_b_H9nalrv4io-dC-70" style="edgeStyle=orthogonalEdgeStyle;rounded=0;orthogonalLoop=1;jettySize=auto;html=1;entryX=1;entryY=0.5;entryDx=0;entryDy=0;" edge="1" parent="1" source="iwmx_b_H9nalrv4io-dC-69" target="iwmx_b_H9nalrv4io-dC-42">
          <mxGeometry relative="1" as="geometry" />
        </mxCell>
        <mxCell id="iwmx_b_H9nalrv4io-dC-69" value="i++" style="rounded=1;whiteSpace=wrap;html=1;fillColor=#FFFFFF;" vertex="1" parent="1">
          <mxGeometry x="851.5" y="975" width="90" height="20" as="geometry" />
        </mxCell>
        <mxCell id="iwmx_b_H9nalrv4io-dC-73" value="" style="ellipse;whiteSpace=wrap;html=1;aspect=fixed;fillColor=#000000;" vertex="1" parent="1">
          <mxGeometry x="370.5" y="1430" width="50" height="50" as="geometry" />
        </mxCell>
      </root>
    </mxGraphModel>
  </diagram>
</mxfile>
